<mxfile host="Electron" modified="2023-11-24T08:59:30.415Z" agent="Mozilla/5.0 (Windows NT 10.0; Win64; x64) AppleWebKit/537.36 (KHTML, like Gecko) draw.io/21.6.8 Chrome/114.0.5735.289 Electron/25.5.0 Safari/537.36" etag="7BsAVb_x0-229zP-ZvvN" version="21.6.8" type="device">
  <diagram name="Page-1" id="90a13364-a465-7bf4-72fc-28e22215d7a0">
    <mxGraphModel dx="1418" dy="820" grid="1" gridSize="10" guides="1" tooltips="1" connect="1" arrows="1" fold="1" page="1" pageScale="1.5" pageWidth="1169" pageHeight="826" background="none" math="0" shadow="0">
      <root>
        <mxCell id="0" style=";html=1;" />
        <mxCell id="1" style=";html=1;" parent="0" />
        <mxCell id="8YfCgpXzdeuu5fyezBvx-144" value="&lt;b style=&quot;font-size: 25px;&quot;&gt;WB&lt;br&gt;&lt;br&gt;&lt;br&gt;&lt;br&gt;&lt;br&gt;&lt;br&gt;&lt;br&gt;&lt;br&gt;&lt;br&gt;&lt;br&gt;&lt;br&gt;&lt;br&gt;&lt;br&gt;&lt;br&gt;&lt;br&gt;&lt;br&gt;&lt;br&gt;&lt;br&gt;&lt;br&gt;&lt;/b&gt;" style="whiteSpace=wrap;html=1;shadow=0;fontSize=20;fillColor=none;strokeColor=#666666;strokeWidth=2;dashed=1;" parent="1" vertex="1">
          <mxGeometry x="1320" y="330" width="90" height="580" as="geometry" />
        </mxCell>
        <mxCell id="8YfCgpXzdeuu5fyezBvx-143" value="&lt;b style=&quot;font-size: 25px;&quot;&gt;MEM&lt;br&gt;&lt;br&gt;&lt;br&gt;&lt;br&gt;&lt;br&gt;&lt;br&gt;&lt;br&gt;&lt;br&gt;&lt;br&gt;&lt;br&gt;&lt;br&gt;&lt;br&gt;&lt;br&gt;&lt;br&gt;&lt;br&gt;&lt;br&gt;&lt;br&gt;&lt;br&gt;&lt;br&gt;&lt;/b&gt;" style="whiteSpace=wrap;html=1;shadow=0;fontSize=20;fillColor=none;strokeColor=#666666;strokeWidth=2;dashed=1;" parent="1" vertex="1">
          <mxGeometry x="1100" y="331" width="120" height="580" as="geometry" />
        </mxCell>
        <mxCell id="8YfCgpXzdeuu5fyezBvx-141" value="&lt;b style=&quot;font-size: 25px;&quot;&gt;EX&lt;br&gt;&lt;br&gt;&lt;br&gt;&lt;br&gt;&lt;br&gt;&lt;br&gt;&lt;br&gt;&lt;br&gt;&lt;br&gt;&lt;br&gt;&lt;br&gt;&lt;br&gt;&lt;br&gt;&lt;br&gt;&lt;br&gt;&lt;br&gt;&lt;br&gt;&lt;br&gt;&lt;br&gt;&lt;/b&gt;" style="whiteSpace=wrap;html=1;shadow=0;fontSize=20;fillColor=none;strokeColor=#666666;strokeWidth=2;dashed=1;" parent="1" vertex="1">
          <mxGeometry x="810" y="331" width="180" height="580" as="geometry" />
        </mxCell>
        <mxCell id="8YfCgpXzdeuu5fyezBvx-139" value="&lt;b style=&quot;font-size: 25px;&quot;&gt;ID&lt;br&gt;&lt;br&gt;&lt;br&gt;&lt;br&gt;&lt;br&gt;&lt;br&gt;&lt;br&gt;&lt;br&gt;&lt;br&gt;&lt;br&gt;&lt;br&gt;&lt;br&gt;&lt;br&gt;&lt;br&gt;&lt;br&gt;&lt;br&gt;&lt;br&gt;&lt;br&gt;&lt;br&gt;&lt;/b&gt;" style="whiteSpace=wrap;html=1;shadow=0;fontSize=20;fillColor=none;strokeColor=#666666;strokeWidth=2;dashed=1;" parent="1" vertex="1">
          <mxGeometry x="490" y="331" width="220" height="580" as="geometry" />
        </mxCell>
        <mxCell id="3a17f1ce550125da-1" value="&lt;b style=&quot;font-size: 25px;&quot;&gt;IF&lt;br&gt;&lt;br&gt;&lt;br&gt;&lt;br&gt;&lt;br&gt;&lt;br&gt;&lt;br&gt;&lt;br&gt;&lt;br&gt;&lt;br&gt;&lt;br&gt;&lt;br&gt;&lt;br&gt;&lt;br&gt;&lt;br&gt;&lt;br&gt;&lt;br&gt;&lt;br&gt;&lt;br&gt;&lt;/b&gt;" style="whiteSpace=wrap;html=1;shadow=0;fontSize=20;fillColor=none;strokeColor=#666666;strokeWidth=2;dashed=1;" parent="1" vertex="1">
          <mxGeometry x="160" y="329" width="220" height="580" as="geometry" />
        </mxCell>
        <mxCell id="8YfCgpXzdeuu5fyezBvx-11" value="" style="group" parent="1" vertex="1" connectable="0">
          <mxGeometry x="280" y="669" width="50" height="50" as="geometry" />
        </mxCell>
        <mxCell id="8YfCgpXzdeuu5fyezBvx-9" value="PC&lt;br&gt;" style="whiteSpace=wrap;html=1;shadow=1;fontSize=18;fillColor=#f5f5f5;strokeColor=#666666;" parent="8YfCgpXzdeuu5fyezBvx-11" vertex="1">
          <mxGeometry width="50" height="50" as="geometry" />
        </mxCell>
        <mxCell id="8YfCgpXzdeuu5fyezBvx-10" value="" style="triangle;whiteSpace=wrap;html=1;direction=north;" parent="8YfCgpXzdeuu5fyezBvx-11" vertex="1">
          <mxGeometry x="10" y="41.66666666666667" width="30" height="8.333333333333334" as="geometry" />
        </mxCell>
        <mxCell id="8YfCgpXzdeuu5fyezBvx-16" value="" style="group" parent="1" vertex="1" connectable="0">
          <mxGeometry x="1230" y="411" width="80" height="503" as="geometry" />
        </mxCell>
        <mxCell id="8YfCgpXzdeuu5fyezBvx-5" value="MEM/WB&lt;br&gt;PIPE" style="whiteSpace=wrap;html=1;shadow=1;fontSize=18;fillColor=#f5f5f5;strokeColor=#666666;" parent="8YfCgpXzdeuu5fyezBvx-16" vertex="1">
          <mxGeometry width="80" height="426" as="geometry" />
        </mxCell>
        <mxCell id="8YfCgpXzdeuu5fyezBvx-15" value="" style="triangle;whiteSpace=wrap;html=1;direction=north;" parent="8YfCgpXzdeuu5fyezBvx-16" vertex="1">
          <mxGeometry x="20" y="410" width="40" height="16" as="geometry" />
        </mxCell>
        <mxCell id="8YfCgpXzdeuu5fyezBvx-18" value="" style="group" parent="1" vertex="1" connectable="0">
          <mxGeometry x="720" y="411" width="80" height="426" as="geometry" />
        </mxCell>
        <mxCell id="8YfCgpXzdeuu5fyezBvx-7" value="ID/EX&lt;br&gt;PIPE" style="whiteSpace=wrap;html=1;shadow=1;fontSize=18;fillColor=#f5f5f5;strokeColor=#666666;" parent="8YfCgpXzdeuu5fyezBvx-18" vertex="1">
          <mxGeometry width="80" height="426" as="geometry" />
        </mxCell>
        <mxCell id="8YfCgpXzdeuu5fyezBvx-13" value="" style="triangle;whiteSpace=wrap;html=1;direction=north;" parent="8YfCgpXzdeuu5fyezBvx-18" vertex="1">
          <mxGeometry x="20" y="410" width="40" height="16" as="geometry" />
        </mxCell>
        <mxCell id="8YfCgpXzdeuu5fyezBvx-19" value="" style="group" parent="1" vertex="1" connectable="0">
          <mxGeometry x="400" y="409" width="80" height="426" as="geometry" />
        </mxCell>
        <mxCell id="8YfCgpXzdeuu5fyezBvx-6" value="IF/ID&lt;br&gt;PIPE" style="whiteSpace=wrap;html=1;shadow=1;fontSize=18;fillColor=#f5f5f5;strokeColor=#666666;" parent="8YfCgpXzdeuu5fyezBvx-19" vertex="1">
          <mxGeometry width="80" height="426" as="geometry" />
        </mxCell>
        <mxCell id="8YfCgpXzdeuu5fyezBvx-12" value="" style="triangle;whiteSpace=wrap;html=1;direction=north;" parent="8YfCgpXzdeuu5fyezBvx-19" vertex="1">
          <mxGeometry x="20" y="410" width="40" height="16" as="geometry" />
        </mxCell>
        <mxCell id="8YfCgpXzdeuu5fyezBvx-36" style="edgeStyle=orthogonalEdgeStyle;rounded=0;orthogonalLoop=1;jettySize=auto;html=1;entryX=0;entryY=0.899;entryDx=0;entryDy=0;entryPerimeter=0;" parent="1" source="8YfCgpXzdeuu5fyezBvx-20" target="8YfCgpXzdeuu5fyezBvx-6" edge="1">
          <mxGeometry relative="1" as="geometry" />
        </mxCell>
        <mxCell id="8YfCgpXzdeuu5fyezBvx-20" value="INST&lt;br&gt;MEM" style="whiteSpace=wrap;html=1;shadow=1;fontSize=18;fillColor=#f5f5f5;strokeColor=#666666;" parent="1" vertex="1">
          <mxGeometry x="200" y="749" width="130" height="86" as="geometry" />
        </mxCell>
        <mxCell id="8YfCgpXzdeuu5fyezBvx-30" style="edgeStyle=orthogonalEdgeStyle;rounded=0;orthogonalLoop=1;jettySize=auto;html=1;" parent="1" source="8YfCgpXzdeuu5fyezBvx-22" edge="1">
          <mxGeometry relative="1" as="geometry">
            <mxPoint x="240" y="749" as="targetPoint" />
          </mxGeometry>
        </mxCell>
        <mxCell id="8YfCgpXzdeuu5fyezBvx-22" value="" style="shape=trapezoid;perimeter=trapezoidPerimeter;whiteSpace=wrap;html=1;fixedSize=1;fontSize=12;fillColor=default;strokeColor=default;shadow=0;direction=west;" parent="1" vertex="1">
          <mxGeometry x="190" y="609" width="100" height="20" as="geometry" />
        </mxCell>
        <mxCell id="8YfCgpXzdeuu5fyezBvx-40" style="edgeStyle=orthogonalEdgeStyle;rounded=0;orthogonalLoop=1;jettySize=auto;html=1;entryX=0.15;entryY=1;entryDx=0;entryDy=0;entryPerimeter=0;" parent="1" source="8YfCgpXzdeuu5fyezBvx-25" edge="1">
          <mxGeometry relative="1" as="geometry">
            <mxPoint x="265" y="609" as="targetPoint" />
          </mxGeometry>
        </mxCell>
        <mxCell id="8YfCgpXzdeuu5fyezBvx-25" value="adder" style="shape=trapezoid;perimeter=trapezoidPerimeter;whiteSpace=wrap;html=1;fixedSize=1;fontSize=18;fillColor=#f5f5f5;strokeColor=#666666;shadow=1;direction=west;" parent="1" vertex="1">
          <mxGeometry x="220" y="549" width="90" height="30" as="geometry" />
        </mxCell>
        <mxCell id="8YfCgpXzdeuu5fyezBvx-32" value="" style="endArrow=classic;html=1;rounded=0;entryX=0;entryY=0.4;entryDx=0;entryDy=0;entryPerimeter=0;" parent="1" target="8YfCgpXzdeuu5fyezBvx-9" edge="1">
          <mxGeometry width="50" height="50" relative="1" as="geometry">
            <mxPoint x="240" y="689" as="sourcePoint" />
            <mxPoint x="310" y="629" as="targetPoint" />
          </mxGeometry>
        </mxCell>
        <mxCell id="8YfCgpXzdeuu5fyezBvx-33" value="" style="endArrow=classic;html=1;rounded=0;" parent="1" edge="1">
          <mxGeometry width="50" height="50" relative="1" as="geometry">
            <mxPoint x="330" y="689" as="sourcePoint" />
            <mxPoint x="400" y="689" as="targetPoint" />
          </mxGeometry>
        </mxCell>
        <mxCell id="8YfCgpXzdeuu5fyezBvx-37" value="" style="shape=waypoint;sketch=0;fillStyle=solid;size=6;pointerEvents=1;points=[];fillColor=none;resizable=0;rotatable=0;perimeter=centerPerimeter;snapToPoint=1;" parent="1" vertex="1">
          <mxGeometry x="230" y="679" width="20" height="20" as="geometry" />
        </mxCell>
        <mxCell id="8YfCgpXzdeuu5fyezBvx-41" value="" style="endArrow=classic;html=1;rounded=0;entryX=0.222;entryY=1;entryDx=0;entryDy=0;entryPerimeter=0;" parent="1" target="8YfCgpXzdeuu5fyezBvx-25" edge="1">
          <mxGeometry width="50" height="50" relative="1" as="geometry">
            <mxPoint x="360" y="689" as="sourcePoint" />
            <mxPoint x="300" y="539" as="targetPoint" />
            <Array as="points">
              <mxPoint x="360" y="529" />
              <mxPoint x="290" y="529" />
            </Array>
          </mxGeometry>
        </mxCell>
        <mxCell id="8YfCgpXzdeuu5fyezBvx-42" value="" style="endArrow=classic;html=1;rounded=0;entryX=0.778;entryY=1;entryDx=0;entryDy=0;entryPerimeter=0;" parent="1" target="8YfCgpXzdeuu5fyezBvx-25" edge="1">
          <mxGeometry width="50" height="50" relative="1" as="geometry">
            <mxPoint x="240" y="529" as="sourcePoint" />
            <mxPoint x="250" y="529" as="targetPoint" />
          </mxGeometry>
        </mxCell>
        <mxCell id="8YfCgpXzdeuu5fyezBvx-43" value="&lt;font style=&quot;font-size: 14px;&quot;&gt;4&lt;/font&gt;" style="edgeLabel;html=1;align=center;verticalAlign=middle;resizable=0;points=[];" parent="8YfCgpXzdeuu5fyezBvx-42" vertex="1" connectable="0">
          <mxGeometry x="-0.5667" relative="1" as="geometry">
            <mxPoint y="-14" as="offset" />
          </mxGeometry>
        </mxCell>
        <mxCell id="8YfCgpXzdeuu5fyezBvx-44" value="decode" style="whiteSpace=wrap;html=1;shadow=1;fontSize=18;fillColor=#f5f5f5;strokeColor=#666666;" parent="1" vertex="1">
          <mxGeometry x="520" y="514" width="130" height="86" as="geometry" />
        </mxCell>
        <mxCell id="8YfCgpXzdeuu5fyezBvx-51" value="" style="group" parent="1" vertex="1" connectable="0">
          <mxGeometry x="520" y="690" width="70" height="86" as="geometry" />
        </mxCell>
        <mxCell id="8YfCgpXzdeuu5fyezBvx-46" value="regfile" style="whiteSpace=wrap;html=1;shadow=1;fontSize=18;fillColor=#f5f5f5;strokeColor=#666666;" parent="8YfCgpXzdeuu5fyezBvx-51" vertex="1">
          <mxGeometry width="70" height="80" as="geometry" />
        </mxCell>
        <mxCell id="8YfCgpXzdeuu5fyezBvx-50" value="" style="triangle;whiteSpace=wrap;html=1;direction=north;" parent="8YfCgpXzdeuu5fyezBvx-51" vertex="1">
          <mxGeometry x="24.230769230769234" y="64" width="21.53846153846154" height="16" as="geometry" />
        </mxCell>
        <mxCell id="8YfCgpXzdeuu5fyezBvx-52" value="" style="shape=trapezoid;perimeter=trapezoidPerimeter;whiteSpace=wrap;html=1;fixedSize=1;fontSize=12;fillColor=default;strokeColor=default;shadow=0;direction=south;" parent="1" vertex="1">
          <mxGeometry x="610" y="710" width="20" height="140" as="geometry" />
        </mxCell>
        <mxCell id="8YfCgpXzdeuu5fyezBvx-54" style="edgeStyle=orthogonalEdgeStyle;rounded=0;orthogonalLoop=1;jettySize=auto;html=1;entryX=0;entryY=0.5;entryDx=0;entryDy=0;exitX=1;exitY=0.754;exitDx=0;exitDy=0;exitPerimeter=0;" parent="1" source="8YfCgpXzdeuu5fyezBvx-6" target="8YfCgpXzdeuu5fyezBvx-46" edge="1">
          <mxGeometry relative="1" as="geometry">
            <mxPoint x="520" y="720" as="targetPoint" />
            <mxPoint x="490" y="730" as="sourcePoint" />
          </mxGeometry>
        </mxCell>
        <mxCell id="8YfCgpXzdeuu5fyezBvx-62" style="edgeStyle=orthogonalEdgeStyle;rounded=0;orthogonalLoop=1;jettySize=auto;html=1;entryX=0;entryY=0.857;entryDx=0;entryDy=0;entryPerimeter=0;" parent="1" target="8YfCgpXzdeuu5fyezBvx-7" edge="1">
          <mxGeometry relative="1" as="geometry">
            <mxPoint x="710" y="776" as="targetPoint" />
            <mxPoint x="690" y="776" as="sourcePoint" />
          </mxGeometry>
        </mxCell>
        <mxCell id="8YfCgpXzdeuu5fyezBvx-64" value="" style="endArrow=classic;html=1;rounded=0;entryX=-0.015;entryY=0.35;entryDx=0;entryDy=0;entryPerimeter=0;" parent="1" target="8YfCgpXzdeuu5fyezBvx-7" edge="1">
          <mxGeometry width="50" height="50" relative="1" as="geometry">
            <mxPoint x="650" y="560" as="sourcePoint" />
            <mxPoint x="750" y="580" as="targetPoint" />
          </mxGeometry>
        </mxCell>
        <mxCell id="8YfCgpXzdeuu5fyezBvx-69" value="BJU" style="whiteSpace=wrap;html=1;shadow=1;fontSize=18;fillColor=#f5f5f5;strokeColor=#666666;" parent="1" vertex="1">
          <mxGeometry x="830" y="441" width="100" height="60" as="geometry" />
        </mxCell>
        <mxCell id="8YfCgpXzdeuu5fyezBvx-73" value="" style="endArrow=classic;html=1;rounded=0;entryX=0;entryY=0.5;entryDx=0;entryDy=0;" parent="1" target="8YfCgpXzdeuu5fyezBvx-69" edge="1">
          <mxGeometry width="50" height="50" relative="1" as="geometry">
            <mxPoint x="800" y="471" as="sourcePoint" />
            <mxPoint x="820" y="474.02" as="targetPoint" />
          </mxGeometry>
        </mxCell>
        <mxCell id="8YfCgpXzdeuu5fyezBvx-80" value="ALU" style="whiteSpace=wrap;html=1;shadow=1;fontSize=18;fillColor=#f5f5f5;strokeColor=#666666;" parent="1" vertex="1">
          <mxGeometry x="830" y="541" width="100" height="60" as="geometry" />
        </mxCell>
        <mxCell id="8YfCgpXzdeuu5fyezBvx-81" value="" style="endArrow=classic;html=1;rounded=0;entryX=0;entryY=0.5;entryDx=0;entryDy=0;" parent="1" target="8YfCgpXzdeuu5fyezBvx-80" edge="1">
          <mxGeometry width="50" height="50" relative="1" as="geometry">
            <mxPoint x="800" y="571" as="sourcePoint" />
            <mxPoint x="820" y="574.02" as="targetPoint" />
          </mxGeometry>
        </mxCell>
        <mxCell id="8YfCgpXzdeuu5fyezBvx-82" value="MDU" style="whiteSpace=wrap;html=1;shadow=1;fontSize=18;fillColor=#f5f5f5;strokeColor=#666666;" parent="1" vertex="1">
          <mxGeometry x="830" y="641" width="100" height="60" as="geometry" />
        </mxCell>
        <mxCell id="8YfCgpXzdeuu5fyezBvx-83" value="" style="endArrow=classic;html=1;rounded=0;entryX=0;entryY=0.5;entryDx=0;entryDy=0;" parent="1" target="8YfCgpXzdeuu5fyezBvx-82" edge="1">
          <mxGeometry width="50" height="50" relative="1" as="geometry">
            <mxPoint x="800" y="671" as="sourcePoint" />
            <mxPoint x="820" y="674.02" as="targetPoint" />
          </mxGeometry>
        </mxCell>
        <mxCell id="8YfCgpXzdeuu5fyezBvx-84" value="LSU" style="whiteSpace=wrap;html=1;shadow=1;fontSize=18;fillColor=#f5f5f5;strokeColor=#666666;" parent="1" vertex="1">
          <mxGeometry x="830" y="746" width="100" height="60" as="geometry" />
        </mxCell>
        <mxCell id="8YfCgpXzdeuu5fyezBvx-85" value="" style="endArrow=classic;html=1;rounded=0;entryX=0;entryY=0.5;entryDx=0;entryDy=0;" parent="1" target="8YfCgpXzdeuu5fyezBvx-84" edge="1">
          <mxGeometry width="50" height="50" relative="1" as="geometry">
            <mxPoint x="800" y="776" as="sourcePoint" />
            <mxPoint x="820" y="779.02" as="targetPoint" />
          </mxGeometry>
        </mxCell>
        <mxCell id="8YfCgpXzdeuu5fyezBvx-86" value="PCU" style="whiteSpace=wrap;html=1;shadow=1;fontSize=18;fillColor=#f5f5f5;strokeColor=#666666;" parent="1" vertex="1">
          <mxGeometry x="550" y="250" width="200" height="60" as="geometry" />
        </mxCell>
        <mxCell id="8YfCgpXzdeuu5fyezBvx-87" value="" style="triangle;whiteSpace=wrap;html=1;direction=north;" parent="1" vertex="1">
          <mxGeometry x="245" y="819" width="40" height="16" as="geometry" />
        </mxCell>
        <mxCell id="8YfCgpXzdeuu5fyezBvx-88" value="" style="group" parent="1" vertex="1" connectable="0">
          <mxGeometry x="1010" y="711.0026605504587" width="80" height="130" as="geometry" />
        </mxCell>
        <mxCell id="8YfCgpXzdeuu5fyezBvx-89" value="DATA&lt;br&gt;MEM" style="whiteSpace=wrap;html=1;shadow=1;fontSize=18;fillColor=#f5f5f5;strokeColor=#666666;" parent="8YfCgpXzdeuu5fyezBvx-88" vertex="1">
          <mxGeometry width="80" height="130" as="geometry" />
        </mxCell>
        <mxCell id="8YfCgpXzdeuu5fyezBvx-90" value="" style="triangle;whiteSpace=wrap;html=1;direction=north;" parent="8YfCgpXzdeuu5fyezBvx-88" vertex="1">
          <mxGeometry x="20" y="120" width="40" height="10" as="geometry" />
        </mxCell>
        <mxCell id="8YfCgpXzdeuu5fyezBvx-91" value="" style="group" parent="1" vertex="1" connectable="0">
          <mxGeometry x="1010" y="411" width="80" height="283.34862385321094" as="geometry" />
        </mxCell>
        <mxCell id="8YfCgpXzdeuu5fyezBvx-2" value="EX/MEM&lt;br&gt;PIPE" style="whiteSpace=wrap;html=1;shadow=1;fontSize=18;fillColor=#f5f5f5;strokeColor=#666666;" parent="8YfCgpXzdeuu5fyezBvx-91" vertex="1">
          <mxGeometry width="80" height="283.348623853211" as="geometry" />
        </mxCell>
        <mxCell id="8YfCgpXzdeuu5fyezBvx-14" value="" style="triangle;whiteSpace=wrap;html=1;direction=north;" parent="8YfCgpXzdeuu5fyezBvx-91" vertex="1">
          <mxGeometry x="20" y="272.7064220183486" width="40" height="10.642201834862385" as="geometry" />
        </mxCell>
        <mxCell id="8YfCgpXzdeuu5fyezBvx-92" value="" style="endArrow=classic;html=1;rounded=0;entryX=0;entryY=0.5;entryDx=0;entryDy=0;" parent="1" target="8YfCgpXzdeuu5fyezBvx-89" edge="1">
          <mxGeometry width="50" height="50" relative="1" as="geometry">
            <mxPoint x="930" y="775.89" as="sourcePoint" />
            <mxPoint x="990.0000000000002" y="775.8826605504585" as="targetPoint" />
          </mxGeometry>
        </mxCell>
        <mxCell id="8YfCgpXzdeuu5fyezBvx-98" style="edgeStyle=orthogonalEdgeStyle;rounded=0;orthogonalLoop=1;jettySize=auto;html=1;entryX=0;entryY=0.565;entryDx=0;entryDy=0;entryPerimeter=0;" parent="1" source="8YfCgpXzdeuu5fyezBvx-93" target="8YfCgpXzdeuu5fyezBvx-2" edge="1">
          <mxGeometry relative="1" as="geometry" />
        </mxCell>
        <mxCell id="8YfCgpXzdeuu5fyezBvx-93" value="" style="shape=trapezoid;perimeter=trapezoidPerimeter;whiteSpace=wrap;html=1;fixedSize=1;fontSize=12;fillColor=default;strokeColor=default;shadow=0;direction=south;" parent="1" vertex="1">
          <mxGeometry x="950" y="451" width="20" height="240" as="geometry" />
        </mxCell>
        <mxCell id="8YfCgpXzdeuu5fyezBvx-94" value="" style="endArrow=classic;html=1;rounded=0;" parent="1" edge="1">
          <mxGeometry width="50" height="50" relative="1" as="geometry">
            <mxPoint x="930" y="670.8" as="sourcePoint" />
            <mxPoint x="950" y="671" as="targetPoint" />
          </mxGeometry>
        </mxCell>
        <mxCell id="8YfCgpXzdeuu5fyezBvx-95" value="" style="endArrow=classic;html=1;rounded=0;" parent="1" edge="1">
          <mxGeometry width="50" height="50" relative="1" as="geometry">
            <mxPoint x="930" y="571" as="sourcePoint" />
            <mxPoint x="950" y="571.2" as="targetPoint" />
          </mxGeometry>
        </mxCell>
        <mxCell id="8YfCgpXzdeuu5fyezBvx-96" value="" style="endArrow=classic;html=1;rounded=0;" parent="1" edge="1">
          <mxGeometry width="50" height="50" relative="1" as="geometry">
            <mxPoint x="930" y="470.86" as="sourcePoint" />
            <mxPoint x="950" y="471.06000000000006" as="targetPoint" />
          </mxGeometry>
        </mxCell>
        <mxCell id="8YfCgpXzdeuu5fyezBvx-99" value="" style="endArrow=classic;html=1;rounded=0;entryX=0.857;entryY=1;entryDx=0;entryDy=0;entryPerimeter=0;" parent="1" target="8YfCgpXzdeuu5fyezBvx-52" edge="1">
          <mxGeometry width="50" height="50" relative="1" as="geometry">
            <mxPoint x="980" y="570" as="sourcePoint" />
            <mxPoint x="610" y="830" as="targetPoint" />
            <Array as="points">
              <mxPoint x="980" y="860" />
              <mxPoint x="580" y="860" />
              <mxPoint x="580" y="830" />
            </Array>
          </mxGeometry>
        </mxCell>
        <mxCell id="8YfCgpXzdeuu5fyezBvx-101" value="" style="endArrow=classic;html=1;rounded=0;entryX=0.75;entryY=1;entryDx=0;entryDy=0;exitX=1;exitY=0.067;exitDx=0;exitDy=0;exitPerimeter=0;" parent="1" source="8YfCgpXzdeuu5fyezBvx-2" target="8YfCgpXzdeuu5fyezBvx-22" edge="1">
          <mxGeometry width="50" height="50" relative="1" as="geometry">
            <mxPoint x="1090" y="400" as="sourcePoint" />
            <mxPoint x="220" y="610" as="targetPoint" />
            <Array as="points">
              <mxPoint x="1110" y="430" />
              <mxPoint x="1110" y="390" />
              <mxPoint x="215" y="390" />
            </Array>
          </mxGeometry>
        </mxCell>
        <mxCell id="8YfCgpXzdeuu5fyezBvx-102" value="" style="endArrow=classic;html=1;rounded=0;exitX=1;exitY=0.102;exitDx=0;exitDy=0;exitPerimeter=0;" parent="1" source="8YfCgpXzdeuu5fyezBvx-2" target="8YfCgpXzdeuu5fyezBvx-22" edge="1">
          <mxGeometry width="50" height="50" relative="1" as="geometry">
            <mxPoint x="1050" y="340" as="sourcePoint" />
            <mxPoint x="830" y="400" as="targetPoint" />
            <Array as="points">
              <mxPoint x="1120" y="440" />
              <mxPoint x="1120" y="380" />
              <mxPoint x="180" y="380" />
              <mxPoint x="180" y="620" />
            </Array>
          </mxGeometry>
        </mxCell>
        <mxCell id="8YfCgpXzdeuu5fyezBvx-104" value="" style="shape=trapezoid;perimeter=trapezoidPerimeter;whiteSpace=wrap;html=1;fixedSize=1;fontSize=12;fillColor=default;strokeColor=default;shadow=0;direction=south;" parent="1" vertex="1">
          <mxGeometry x="1110" y="451" width="20" height="370" as="geometry" />
        </mxCell>
        <mxCell id="8YfCgpXzdeuu5fyezBvx-106" style="edgeStyle=orthogonalEdgeStyle;rounded=0;orthogonalLoop=1;jettySize=auto;html=1;" parent="1" edge="1">
          <mxGeometry relative="1" as="geometry">
            <mxPoint x="1090" y="775.76" as="sourcePoint" />
            <mxPoint x="1111" y="776" as="targetPoint" />
            <Array as="points">
              <mxPoint x="1111" y="775.76" />
            </Array>
          </mxGeometry>
        </mxCell>
        <mxCell id="8YfCgpXzdeuu5fyezBvx-107" value="size" style="whiteSpace=wrap;html=1;shadow=1;fontSize=18;fillColor=#f5f5f5;strokeColor=#666666;" parent="1" vertex="1">
          <mxGeometry x="1150" y="466" width="40" height="350" as="geometry" />
        </mxCell>
        <mxCell id="8YfCgpXzdeuu5fyezBvx-108" style="edgeStyle=orthogonalEdgeStyle;rounded=0;orthogonalLoop=1;jettySize=auto;html=1;" parent="1" edge="1">
          <mxGeometry relative="1" as="geometry">
            <mxPoint x="1090" y="570.88" as="sourcePoint" />
            <mxPoint x="1111" y="571.12" as="targetPoint" />
            <Array as="points">
              <mxPoint x="1111" y="570.88" />
            </Array>
          </mxGeometry>
        </mxCell>
        <mxCell id="8YfCgpXzdeuu5fyezBvx-110" style="edgeStyle=orthogonalEdgeStyle;rounded=0;orthogonalLoop=1;jettySize=auto;html=1;" parent="1" edge="1">
          <mxGeometry relative="1" as="geometry">
            <mxPoint x="1130" y="641" as="sourcePoint" />
            <mxPoint x="1151" y="641.24" as="targetPoint" />
            <Array as="points">
              <mxPoint x="1151" y="641" />
            </Array>
          </mxGeometry>
        </mxCell>
        <mxCell id="8YfCgpXzdeuu5fyezBvx-111" value="" style="endArrow=classic;html=1;rounded=0;exitX=0.5;exitY=0;exitDx=0;exitDy=0;" parent="1" edge="1">
          <mxGeometry width="50" height="50" relative="1" as="geometry">
            <mxPoint x="1190.0000000000002" y="640.9999999999999" as="sourcePoint" />
            <mxPoint x="1230" y="641" as="targetPoint" />
          </mxGeometry>
        </mxCell>
        <mxCell id="8YfCgpXzdeuu5fyezBvx-112" value="" style="endArrow=classic;html=1;rounded=0;entryX=0.714;entryY=1;entryDx=0;entryDy=0;entryPerimeter=0;" parent="1" target="8YfCgpXzdeuu5fyezBvx-52" edge="1">
          <mxGeometry width="50" height="50" relative="1" as="geometry">
            <mxPoint x="1210" y="640" as="sourcePoint" />
            <mxPoint x="610" y="810" as="targetPoint" />
            <Array as="points">
              <mxPoint x="1210" y="870" />
              <mxPoint x="570" y="870" />
              <mxPoint x="570" y="810" />
            </Array>
          </mxGeometry>
        </mxCell>
        <mxCell id="8YfCgpXzdeuu5fyezBvx-115" value="" style="endArrow=classic;html=1;rounded=0;" parent="1" edge="1">
          <mxGeometry width="50" height="50" relative="1" as="geometry">
            <mxPoint x="1310" y="640" as="sourcePoint" />
            <mxPoint x="610" y="790" as="targetPoint" />
            <Array as="points">
              <mxPoint x="1360" y="640" />
              <mxPoint x="1360" y="880" />
              <mxPoint x="560" y="880" />
              <mxPoint x="560" y="790" />
            </Array>
          </mxGeometry>
        </mxCell>
        <mxCell id="8YfCgpXzdeuu5fyezBvx-116" value="" style="endArrow=classic;html=1;rounded=0;exitX=0.04;exitY=0.595;exitDx=0;exitDy=0;exitPerimeter=0;" parent="1" edge="1">
          <mxGeometry width="50" height="50" relative="1" as="geometry">
            <mxPoint x="650" y="880" as="sourcePoint" />
            <mxPoint x="520" y="760" as="targetPoint" />
            <Array as="points">
              <mxPoint x="500" y="880" />
              <mxPoint x="500" y="760" />
            </Array>
          </mxGeometry>
        </mxCell>
        <mxCell id="8YfCgpXzdeuu5fyezBvx-120" value="" style="endArrow=classic;html=1;rounded=0;exitX=1;exitY=0.5;exitDx=0;exitDy=0;entryX=0.143;entryY=1;entryDx=0;entryDy=0;entryPerimeter=0;" parent="1" source="8YfCgpXzdeuu5fyezBvx-46" target="8YfCgpXzdeuu5fyezBvx-52" edge="1">
          <mxGeometry width="50" height="50" relative="1" as="geometry">
            <mxPoint x="620" y="730" as="sourcePoint" />
            <mxPoint x="640" y="750" as="targetPoint" />
          </mxGeometry>
        </mxCell>
        <mxCell id="8YfCgpXzdeuu5fyezBvx-119" value="size" style="whiteSpace=wrap;html=1;shadow=1;fontSize=18;fillColor=#f5f5f5;strokeColor=#666666;" parent="1" vertex="1">
          <mxGeometry x="650" y="740" width="40" height="70" as="geometry" />
        </mxCell>
        <mxCell id="8YfCgpXzdeuu5fyezBvx-121" value="" style="endArrow=classic;html=1;rounded=0;exitX=1;exitY=0.5;exitDx=0;exitDy=0;entryX=0.143;entryY=1;entryDx=0;entryDy=0;entryPerimeter=0;" parent="1" edge="1">
          <mxGeometry width="50" height="50" relative="1" as="geometry">
            <mxPoint x="630" y="776" as="sourcePoint" />
            <mxPoint x="650" y="776" as="targetPoint" />
          </mxGeometry>
        </mxCell>
        <mxCell id="8YfCgpXzdeuu5fyezBvx-122" value="" style="shape=waypoint;sketch=0;fillStyle=solid;size=6;pointerEvents=1;points=[];fillColor=none;resizable=0;rotatable=0;perimeter=centerPerimeter;snapToPoint=1;" parent="1" vertex="1">
          <mxGeometry x="550" y="870" width="20" height="20" as="geometry" />
        </mxCell>
        <mxCell id="8YfCgpXzdeuu5fyezBvx-124" value="" style="endArrow=classic;html=1;rounded=0;" parent="1" edge="1">
          <mxGeometry width="50" height="50" relative="1" as="geometry">
            <mxPoint x="480" y="560" as="sourcePoint" />
            <mxPoint x="520" y="560" as="targetPoint" />
          </mxGeometry>
        </mxCell>
        <mxCell id="8YfCgpXzdeuu5fyezBvx-125" value="" style="endArrow=classic;html=1;rounded=0;exitX=0.5;exitY=1;exitDx=0;exitDy=0;entryX=0.5;entryY=0;entryDx=0;entryDy=0;" parent="1" source="8YfCgpXzdeuu5fyezBvx-86" target="8YfCgpXzdeuu5fyezBvx-6" edge="1">
          <mxGeometry width="50" height="50" relative="1" as="geometry">
            <mxPoint x="620" y="400" as="sourcePoint" />
            <mxPoint x="670" y="350" as="targetPoint" />
            <Array as="points">
              <mxPoint x="650" y="370" />
              <mxPoint x="440" y="370" />
            </Array>
          </mxGeometry>
        </mxCell>
        <mxCell id="8YfCgpXzdeuu5fyezBvx-126" value="" style="endArrow=classic;html=1;rounded=0;entryX=0.5;entryY=0;entryDx=0;entryDy=0;" parent="1" target="8YfCgpXzdeuu5fyezBvx-7" edge="1">
          <mxGeometry width="50" height="50" relative="1" as="geometry">
            <mxPoint x="650" y="370" as="sourcePoint" />
            <mxPoint x="810" y="390" as="targetPoint" />
            <Array as="points">
              <mxPoint x="760" y="370" />
            </Array>
          </mxGeometry>
        </mxCell>
        <mxCell id="8YfCgpXzdeuu5fyezBvx-127" value="" style="endArrow=classic;html=1;rounded=0;entryX=0.5;entryY=0;entryDx=0;entryDy=0;" parent="1" target="8YfCgpXzdeuu5fyezBvx-2" edge="1">
          <mxGeometry width="50" height="50" relative="1" as="geometry">
            <mxPoint x="760" y="370" as="sourcePoint" />
            <mxPoint x="630" y="421" as="targetPoint" />
            <Array as="points">
              <mxPoint x="1050" y="371" />
            </Array>
          </mxGeometry>
        </mxCell>
        <mxCell id="8YfCgpXzdeuu5fyezBvx-128" value="" style="endArrow=classic;html=1;rounded=0;entryX=0.5;entryY=0;entryDx=0;entryDy=0;" parent="1" target="8YfCgpXzdeuu5fyezBvx-5" edge="1">
          <mxGeometry width="50" height="50" relative="1" as="geometry">
            <mxPoint x="1050" y="371" as="sourcePoint" />
            <mxPoint x="1340" y="411" as="targetPoint" />
            <Array as="points">
              <mxPoint x="1270" y="371" />
            </Array>
          </mxGeometry>
        </mxCell>
        <mxCell id="8YfCgpXzdeuu5fyezBvx-129" value="" style="endArrow=classic;html=1;rounded=0;entryX=0.8;entryY=0;entryDx=0;entryDy=0;entryPerimeter=0;" parent="1" target="8YfCgpXzdeuu5fyezBvx-9" edge="1">
          <mxGeometry width="50" height="50" relative="1" as="geometry">
            <mxPoint x="440" y="369" as="sourcePoint" />
            <mxPoint x="480" y="439" as="targetPoint" />
            <Array as="points">
              <mxPoint x="320" y="369" />
            </Array>
          </mxGeometry>
        </mxCell>
        <mxCell id="8YfCgpXzdeuu5fyezBvx-130" value="" style="shape=waypoint;sketch=0;fillStyle=solid;size=6;pointerEvents=1;points=[];fillColor=none;resizable=0;rotatable=0;perimeter=centerPerimeter;snapToPoint=1;" parent="1" vertex="1">
          <mxGeometry x="430" y="359" width="20" height="20" as="geometry" />
        </mxCell>
        <mxCell id="8YfCgpXzdeuu5fyezBvx-132" value="" style="shape=waypoint;sketch=0;fillStyle=solid;size=6;pointerEvents=1;points=[];fillColor=none;resizable=0;rotatable=0;perimeter=centerPerimeter;snapToPoint=1;" parent="1" vertex="1">
          <mxGeometry x="640" y="360" width="20" height="20" as="geometry" />
        </mxCell>
        <mxCell id="8YfCgpXzdeuu5fyezBvx-133" value="" style="shape=waypoint;sketch=0;fillStyle=solid;size=6;pointerEvents=1;points=[];fillColor=none;resizable=0;rotatable=0;perimeter=centerPerimeter;snapToPoint=1;" parent="1" vertex="1">
          <mxGeometry x="750" y="361" width="20" height="20" as="geometry" />
        </mxCell>
        <mxCell id="8YfCgpXzdeuu5fyezBvx-134" value="" style="shape=waypoint;sketch=0;fillStyle=solid;size=6;pointerEvents=1;points=[];fillColor=none;resizable=0;rotatable=0;perimeter=centerPerimeter;snapToPoint=1;" parent="1" vertex="1">
          <mxGeometry x="1040" y="361" width="20" height="20" as="geometry" />
        </mxCell>
        <mxCell id="8YfCgpXzdeuu5fyezBvx-135" value="" style="endArrow=classic;html=1;rounded=0;entryX=0.65;entryY=1;entryDx=0;entryDy=0;entryPerimeter=0;" parent="1" target="8YfCgpXzdeuu5fyezBvx-86" edge="1">
          <mxGeometry width="50" height="50" relative="1" as="geometry">
            <mxPoint x="680" y="560" as="sourcePoint" />
            <mxPoint x="680" y="360" as="targetPoint" />
          </mxGeometry>
        </mxCell>
        <mxCell id="8YfCgpXzdeuu5fyezBvx-136" value="" style="shape=waypoint;sketch=0;fillStyle=solid;size=6;pointerEvents=1;points=[];fillColor=none;resizable=0;rotatable=0;perimeter=centerPerimeter;snapToPoint=1;" parent="1" vertex="1">
          <mxGeometry x="670" y="550" width="20" height="20" as="geometry" />
        </mxCell>
        <mxCell id="8YfCgpXzdeuu5fyezBvx-137" value="" style="shape=waypoint;sketch=0;fillStyle=solid;size=6;pointerEvents=1;points=[];fillColor=none;resizable=0;rotatable=0;perimeter=centerPerimeter;snapToPoint=1;" parent="1" vertex="1">
          <mxGeometry x="690" y="380" width="20" height="20" as="geometry" />
        </mxCell>
        <mxCell id="8YfCgpXzdeuu5fyezBvx-138" value="" style="endArrow=classic;html=1;rounded=0;entryX=0.75;entryY=1;entryDx=0;entryDy=0;" parent="1" target="8YfCgpXzdeuu5fyezBvx-86" edge="1">
          <mxGeometry width="50" height="50" relative="1" as="geometry">
            <mxPoint x="700" y="390" as="sourcePoint" />
            <mxPoint x="700" y="360" as="targetPoint" />
          </mxGeometry>
        </mxCell>
        <mxCell id="8YfCgpXzdeuu5fyezBvx-146" value="" style="endArrow=classic;html=1;rounded=0;entryX=0;entryY=0.5;entryDx=0;entryDy=0;" parent="1" source="8YfCgpXzdeuu5fyezBvx-136" target="8YfCgpXzdeuu5fyezBvx-52" edge="1">
          <mxGeometry width="50" height="50" relative="1" as="geometry">
            <mxPoint x="650" y="600" as="sourcePoint" />
            <mxPoint x="700" y="550" as="targetPoint" />
            <Array as="points">
              <mxPoint x="680" y="640" />
              <mxPoint x="620" y="640" />
            </Array>
          </mxGeometry>
        </mxCell>
        <mxCell id="8YfCgpXzdeuu5fyezBvx-147" value="" style="shape=waypoint;sketch=0;fillStyle=solid;size=6;pointerEvents=1;points=[];fillColor=none;resizable=0;rotatable=0;perimeter=centerPerimeter;snapToPoint=1;" parent="1" vertex="1">
          <mxGeometry x="970" y="561" width="20" height="20" as="geometry" />
        </mxCell>
        <mxCell id="8YfCgpXzdeuu5fyezBvx-148" value="" style="shape=waypoint;sketch=0;fillStyle=solid;size=6;pointerEvents=1;points=[];fillColor=none;resizable=0;rotatable=0;perimeter=centerPerimeter;snapToPoint=1;" parent="1" vertex="1">
          <mxGeometry x="1200" y="631" width="20" height="20" as="geometry" />
        </mxCell>
        <mxCell id="8YfCgpXzdeuu5fyezBvx-149" value="" style="shape=waypoint;sketch=0;fillStyle=solid;size=6;pointerEvents=1;points=[];fillColor=none;resizable=0;rotatable=0;perimeter=centerPerimeter;snapToPoint=1;" parent="1" vertex="1">
          <mxGeometry x="350" y="679" width="20" height="20" as="geometry" />
        </mxCell>
      </root>
    </mxGraphModel>
  </diagram>
</mxfile>
